<svg width="198" height="94" viewBox="0 0 198 94" fill="none" xmlns="http://www.w3.org/2000/svg">
<path d="M33.4375 57.4375C32.6458 59.1875 31.7708 61.2917 30.8125 63.75C29.8542 66.2083 28.8125 68.7708 27.6875 71.4375C26.5625 74.1042 25.3542 76.75 24.0625 79.375C22.8125 82 21.4792 84.3542 20.0625 86.4375C18.6875 88.4792 17.25 90.1458 15.75 91.4375C14.2917 92.7292 12.7917 93.375 11.25 93.375C9.95833 93.375 8.89583 93.1667 8.0625 92.75C7.22917 92.375 6.58333 91.875 6.125 91.25C5.66667 90.6667 5.33333 90.0208 5.125 89.3125C4.95833 88.5625 4.875 87.8542 4.875 87.1875C4.875 86.1875 5.02083 85.1667 5.3125 84.125C5.64583 83.0833 6.04167 82.125 6.5 81.25L30.4375 37.1875C31.4792 35.3542 32.4583 33.9167 33.375 32.875C34.3333 31.8333 35.2083 31.0625 36 30.5625C36.8333 30.0625 37.5625 29.7708 38.1875 29.6875C38.8125 29.5625 39.3333 29.5 39.75 29.5C40.5 29.5 41.1875 29.7708 41.8125 30.3125C42.4375 30.8125 42.75 31.75 42.75 33.125C42.75 34.4583 42.3958 36.2917 41.6875 38.625C40.9792 40.9583 39.6667 43.9583 37.75 47.625C41 47.375 44.2083 46.8333 47.375 46C50.5417 45.125 53.375 43.9375 55.875 42.4375C58.4167 40.9375 60.4583 39.125 62 37C63.5417 34.8333 64.3125 32.3333 64.3125 29.5C64.3125 27 63.8958 24.625 63.0625 22.375C62.2708 20.0833 61.0833 18.0833 59.5 16.375C57.9583 14.625 56.0417 13.25 53.75 12.25C51.4583 11.2083 48.8125 10.6875 45.8125 10.6875C41.7292 10.6875 38.2083 11.0833 35.25 11.875C32.3333 12.625 29.8125 13.625 27.6875 14.875C25.6042 16.125 23.8542 17.5625 22.4375 19.1875C21.0208 20.8125 19.7917 22.4583 18.75 24.125C17.75 25.7917 16.8542 27.4375 16.0625 29.0625C15.2708 30.6875 14.4375 32.125 13.5625 33.375C12.7292 34.625 11.7708 35.6458 10.6875 36.4375C9.60417 37.1875 8.27083 37.5625 6.6875 37.5625C4.64583 37.5625 3.125 37.0417 2.125 36C1.16667 34.9583 0.6875 33.4792 0.6875 31.5625C0.6875 29.6458 1.20833 27.5625 2.25 25.3125C3.29167 23.0208 4.77083 20.7292 6.6875 18.4375C8.60417 16.1458 10.9167 13.9583 13.625 11.875C16.375 9.75 19.4583 7.875 22.875 6.25C26.2917 4.625 30 3.33333 34 2.375C38.0417 1.375 42.2917 0.875 46.75 0.875C50.9167 0.875 54.9167 1.47917 58.75 2.6875C62.625 3.85417 66.0417 5.625 69 8C71.9583 10.375 74.3125 13.3542 76.0625 16.9375C77.8542 20.4792 78.75 24.6458 78.75 29.4375C78.75 33.8125 77.6875 37.7708 75.5625 41.3125C73.4792 44.8125 70.6458 47.7917 67.0625 50.25C63.5208 52.6667 59.4167 54.5417 54.75 55.875C50.0833 57.1667 45.1667 57.8125 40 57.8125C38.9167 57.8125 37.8125 57.7917 36.6875 57.75C35.6042 57.7083 34.5208 57.6042 33.4375 57.4375ZM91.5 56.875C89.5417 56.875 87.6458 57.375 85.8125 58.375C83.9792 59.375 82.3542 60.6875 80.9375 62.3125C79.5208 63.9375 78.3958 65.7708 77.5625 67.8125C76.7292 69.8125 76.3125 71.8333 76.3125 73.875C76.3125 74.7083 76.3542 75.5833 76.4375 76.5C76.5625 77.375 76.8125 78.1875 77.1875 78.9375C77.5625 79.6875 78.0833 80.3125 78.75 80.8125C79.4583 81.3125 80.3958 81.5625 81.5625 81.5625C82.4792 81.5625 83.5417 81.1667 84.75 80.375C86 79.5417 87.2708 78.5 88.5625 77.25C89.8958 75.9583 91.1875 74.5625 92.4375 73.0625C93.6875 71.5208 94.8125 70.0208 95.8125 68.5625C96.8125 67.1042 97.625 65.7917 98.25 64.625C98.875 63.4583 99.1875 62.6042 99.1875 62.0625C99.1875 61.2708 98.9167 60.5625 98.375 59.9375C97.8333 59.2708 97.1667 58.7083 96.375 58.25C95.5833 57.7917 94.7292 57.4583 93.8125 57.25C92.9375 57 92.1667 56.875 91.5 56.875ZM134.812 73C134.062 73.7083 133.062 74.6875 131.812 75.9375C130.562 77.1875 129.125 78.5417 127.5 80C125.917 81.4583 124.208 82.9375 122.375 84.4375C120.583 85.8958 118.729 87.2292 116.812 88.4375C114.938 89.6458 113.083 90.625 111.25 91.375C109.417 92.1667 107.688 92.5625 106.062 92.5625C104.604 92.5625 103.354 92.25 102.312 91.625C101.271 91 100.396 90.1875 99.6875 89.1875C99.0208 88.1875 98.5208 87.0625 98.1875 85.8125C97.8542 84.5208 97.6875 83.2083 97.6875 81.875C97.6875 81 97.75 80.1458 97.875 79.3125C98 78.4375 98.2083 77.625 98.5 76.875C97.2083 78.625 95.7292 80.4375 94.0625 82.3125C92.4375 84.1458 90.6667 85.8333 88.75 87.375C86.875 88.875 84.8958 90.1042 82.8125 91.0625C80.7708 92.0625 78.6875 92.5625 76.5625 92.5625C75.4792 92.5625 74.2083 92.3333 72.75 91.875C71.3333 91.4583 69.9792 90.75 68.6875 89.75C67.3958 88.75 66.3125 87.4583 65.4375 85.875C64.5625 84.2917 64.125 82.3542 64.125 80.0625C64.125 78.3542 64.375 76.3125 64.875 73.9375C65.4167 71.5625 66.2083 69.1042 67.25 66.5625C68.3333 63.9792 69.6875 61.4375 71.3125 58.9375C72.9792 56.4375 74.9375 54.2083 77.1875 52.25C79.4375 50.25 82 48.6458 84.875 47.4375C87.75 46.1875 90.9583 45.5625 94.5 45.5625C96.3333 45.5625 97.9375 45.7917 99.3125 46.25C100.688 46.7083 101.854 47.2083 102.812 47.75C103.896 48.4167 104.854 49.1458 105.688 49.9375C106.396 49.5625 107.125 49.2083 107.875 48.875C108.5 48.5833 109.146 48.3333 109.812 48.125C110.521 47.875 111.125 47.75 111.625 47.75C113.208 47.75 114.5 48.1875 115.5 49.0625C116.5 49.9375 117 50.8958 117 51.9375C117 52.2292 116.979 52.4583 116.938 52.625C116.729 53.4167 116.396 54.4167 115.938 55.625C115.521 56.8333 115.042 58.1875 114.5 59.6875C113.958 61.1458 113.396 62.6875 112.812 64.3125C112.271 65.8958 111.771 67.4583 111.312 69C110.854 70.5417 110.479 72 110.188 73.375C109.896 74.7083 109.75 75.8542 109.75 76.8125C109.75 78.0625 109.958 79.1042 110.375 79.9375C110.792 80.7292 111.5 81.125 112.5 81.125C113.125 81.125 113.854 80.9375 114.688 80.5625C115.562 80.1458 116.5 79.6042 117.5 78.9375C118.5 78.2708 119.521 77.5208 120.562 76.6875C121.646 75.8125 122.688 74.9375 123.688 74.0625C126.021 71.9792 128.5 69.6042 131.125 66.9375C131.792 66.3958 132.438 66.125 133.062 66.125C133.896 66.125 134.583 66.5417 135.125 67.375C135.708 68.1667 136 69.0625 136 70.0625C136 71.2292 135.604 72.2083 134.812 73ZM138.312 53.0625C139.146 51.2708 140.188 49.9375 141.438 49.0625C142.688 48.1875 143.917 47.75 145.125 47.75C146.125 47.75 147.021 48.125 147.812 48.875C148.604 49.5833 149 50.6458 149 52.0625C149 52.6042 148.938 53.1875 148.812 53.8125C148.688 54.4375 148.458 55.1042 148.125 55.8125C149.042 54.6458 150.354 53.4583 152.062 52.25C153.771 51 155.646 49.8958 157.688 48.9375C159.771 47.9375 161.896 47.125 164.062 46.5C166.271 45.875 168.354 45.5625 170.312 45.5625C172.521 45.5625 174.354 46.1042 175.812 47.1875C177.312 48.2292 178.062 50.0208 178.062 52.5625C178.062 54.0625 177.833 55.625 177.375 57.25C176.917 58.875 176.312 60.5 175.562 62.125C174.854 63.75 174.042 65.3542 173.125 66.9375C172.25 68.4792 171.375 69.9375 170.5 71.3125C169.625 72.6875 168.812 73.9583 168.062 75.125C167.354 76.25 166.792 77.1875 166.375 77.9375C165.833 78.6042 165.562 79.375 165.562 80.25C165.562 80.5833 165.667 80.875 165.875 81.125C166.083 81.375 166.417 81.5 166.875 81.5C167.167 81.5 167.5 81.4792 167.875 81.4375C168.25 81.3542 168.708 81.125 169.25 80.75C171.5 79.9167 173.792 78.875 176.125 77.625C178.5 76.375 180.771 75.0625 182.938 73.6875C185.104 72.2708 187.083 70.875 188.875 69.5C190.708 68.0833 192.229 66.8125 193.438 65.6875C193.771 65.3958 194.104 65.1875 194.438 65.0625C194.771 64.9375 195.083 64.875 195.375 64.875C196.083 64.875 196.625 65.1458 197 65.6875C197.417 66.2292 197.625 66.9167 197.625 67.75C197.625 69.0417 197.208 70.4792 196.375 72.0625C195.583 73.6458 194.312 75.125 192.562 76.5C190.188 78.2083 188 79.7708 186 81.1875C184.042 82.6042 182.021 83.9375 179.938 85.1875C177.896 86.3958 175.688 87.5417 173.312 88.625C170.979 89.6667 168.229 90.6458 165.062 91.5625C163.979 91.8958 162.979 92.1458 162.062 92.3125C161.188 92.4792 160.375 92.5625 159.625 92.5625C157.417 92.5625 155.792 91.9583 154.75 90.75C153.75 89.5 153.25 87.7708 153.25 85.5625C153.25 85.2708 153.25 85 153.25 84.75C153.292 84.4583 153.333 84.1458 153.375 83.8125C153.458 82.5208 153.792 81.1042 154.375 79.5625C155 78.0208 155.729 76.4375 156.562 74.8125C157.438 73.1875 158.354 71.5833 159.312 70C160.271 68.375 161.146 66.8542 161.938 65.4375C162.771 63.9792 163.458 62.6875 164 61.5625C164.542 60.4375 164.812 59.5208 164.812 58.8125C164.812 58.1875 164.625 57.6667 164.25 57.25C163.917 56.7917 163.396 56.5625 162.688 56.5625C160.021 56.5625 157.479 57.3542 155.062 58.9375C152.688 60.5208 150.458 62.4792 148.375 64.8125C146.292 67.1042 144.375 69.5417 142.625 72.125C140.875 74.7083 139.333 77.0208 138 79.0625C137.167 80.4375 136.396 81.9167 135.688 83.5C135.021 85.0417 134.312 86.5 133.562 87.875C132.812 89.2083 131.958 90.3125 131 91.1875C130.083 92.1042 128.917 92.5625 127.5 92.5625C126.042 92.5625 124.896 92.1042 124.062 91.1875C123.229 90.2708 122.812 89.1458 122.812 87.8125C122.812 87.1042 123.104 85.9583 123.688 84.375C124.271 82.7917 125.021 80.9583 125.938 78.875C126.854 76.7917 127.875 74.5625 129 72.1875C130.167 69.7708 131.312 67.3958 132.438 65.0625C133.604 62.6875 134.708 60.4583 135.75 58.375C136.792 56.2917 137.646 54.5208 138.312 53.0625Z" fill="#EFEEE6"/>
</svg>
